<svg xmlns="http://www.w3.org/2000/svg" viewBox="0 0 40 40" fill="none">
  <defs>
    <linearGradient id="g1" x1="8" y1="8" x2="32" y2="32" gradientUnits="userSpaceOnUse">
      <stop offset="0" stop-color="#60a5fa"></stop>
      <stop offset="1" stop-color="#a78bfa"></stop>
    </linearGradient>
  </defs>
  <g stroke="url(#g1)" stroke-width="1.5" stroke-linecap="round">
    <line x1="13.5" y1="3" x2="13.5" y2="8"></line>
    <line x1="20" y1="3" x2="20" y2="8"></line>
    <line x1="26.5" y1="3" x2="26.5" y2="8"></line>
    <line x1="13.5" y1="32" x2="13.5" y2="37"></line>
    <line x1="20" y1="32" x2="20" y2="37"></line>
    <line x1="26.5" y1="32" x2="26.5" y2="37"></line>
    <line x1="3" y1="13.5" x2="8" y2="13.5"></line>
    <line x1="3" y1="20" x2="8" y2="20"></line>
    <line x1="3" y1="26.5" x2="8" y2="26.5"></line>
    <line x1="32" y1="13.5" x2="37" y2="13.5"></line>
    <line x1="32" y1="20" x2="37" y2="20"></line>
    <line x1="32" y1="26.5" x2="37" y2="26.5"></line>
  </g>
  <rect x="8" y="8" width="24" height="24" rx="4" stroke="url(#g1)" stroke-width="1.8"></rect>
  <circle cx="12.5" cy="12.5" r="1.2" fill="url(#g1)" fill-opacity="0.4"></circle>
  <g stroke="url(#g1)" stroke-opacity="0.15" stroke-width="1">
    <line x1="10" y1="14" x2="30" y2="14"></line>
    <line x1="10" y1="27" x2="30" y2="27"></line>
  </g>
  <path d="M300 -10Q229 -10 177.0 17.0Q125 44 96.5 93.0Q68 142 68 208V522Q68 588 96.5 637.0Q125 686 177.0 713.0Q229 740 300 740Q371 740 423.0 713.0Q475 686 503.5 637.0Q532 588 532 522V208Q532 142 503.5 93.0Q475 44 423.0 17.0Q371 -10 300 -10ZM300 98Q352 98 383.0 128.0Q414 158 414 208V522Q414 572 383.5 602.0Q353 632 300 632Q247 632 216.5 602.0Q186 572 186 522V208Q186 158 217.0 128.0Q248 98 300 98ZM300 305Q270 305 252.0 321.5Q234 338 234 368Q234 398 252.0 413.5Q270 429 300 429Q330 429 348.0 413.5Q366 398 366 368Q366 338 348.0 321.5Q330 305 300 305Z" transform="translate(10.0000 23.0) scale(0.00650 -0.00650)" fill="url(#g1)" fill-opacity="0.35"/>
  <path d="M36 0 228 284 49 550H190L275 415Q283 403 290.0 388.0Q297 373 300 364Q304 373 310.5 388.0Q317 403 325 415L410 550H552L373 284L564 0H422L327 151Q319 163 311.5 178.5Q304 194 300 203Q296 194 289.0 178.5Q282 163 274 151L178 0Z" transform="translate(13.9000 23.0) scale(0.00650 -0.00650)" fill="url(#g1)" fill-opacity="0.35"/>
  <path d="M80 0V730H534V614H203V419H508V303H205V0Z" transform="translate(17.9000 24.0) scale(0.01100 -0.01100)" fill="url(#g1)"/>
  <path d="M80 0V730H534V614H203V419H508V303H205V0Z" transform="translate(24.5000 24.0) scale(0.01100 -0.01100)" fill="url(#g1)"/>
</svg>